<?xml version="1.0" encoding="UTF-8" standalone="no"?>
<!-- Created with Inkscape (http://www.inkscape.org/) -->

<svg
   xmlns:dc="http://purl.org/dc/elements/1.1/"
   xmlns:cc="http://creativecommons.org/ns#"
   xmlns:rdf="http://www.w3.org/1999/02/22-rdf-syntax-ns#"
   xmlns:svg="http://www.w3.org/2000/svg"
   xmlns="http://www.w3.org/2000/svg"
   xmlns:sodipodi="http://sodipodi.sourceforge.net/DTD/sodipodi-0.dtd"
   xmlns:inkscape="http://www.inkscape.org/namespaces/inkscape"
   width="1000"
   height="1000"
   viewBox="0 0 264.58333 264.58334"
   version="1.1"
   id="svg8"
   inkscape:version="0.92.1 r15371"
   sodipodi:docname="m_vector.svg">
  <defs
     id="defs2" />
  <sodipodi:namedview
     id="base"
     pagecolor="#ffffff"
     bordercolor="#666666"
     borderopacity="1.0"
     inkscape:pageopacity="0.0"
     inkscape:pageshadow="2"
     inkscape:zoom="0.7"
     inkscape:cx="171.2023"
     inkscape:cy="422.72793"
     inkscape:document-units="mm"
     inkscape:current-layer="layer1-6"
     showgrid="false"
     units="px"
     showguides="true"
     inkscape:guide-bbox="true"
     inkscape:window-width="1920"
     inkscape:window-height="1186"
     inkscape:window-x="-11"
     inkscape:window-y="-11"
     inkscape:window-maximized="1">
    <sodipodi:guide
       position="132.29167,132.29167"
       orientation="0,1"
       id="guide4485"
       inkscape:locked="false"
       inkscape:label=""
       inkscape:color="rgb(0,0,255)" />
    <sodipodi:guide
       position="238.125,26.458333"
       orientation="0,1"
       id="guide4487"
       inkscape:locked="false"
       inkscape:label=""
       inkscape:color="rgb(0,0,255)" />
    <sodipodi:guide
       position="26.458333,238.125"
       orientation="0,1"
       id="guide4489"
       inkscape:locked="false"
       inkscape:label=""
       inkscape:color="rgb(0,0,255)" />
    <sodipodi:guide
       position="26.458069,238.125"
       orientation="1,0"
       id="guide4491"
       inkscape:locked="true"
       inkscape:label=""
       inkscape:color="rgb(0,0,255)" />
    <sodipodi:guide
       position="132.29167,132.29167"
       orientation="1,0"
       id="guide4493"
       inkscape:locked="true"
       inkscape:label=""
       inkscape:color="rgb(0,0,255)" />
    <sodipodi:guide
       position="238.125,26.458333"
       orientation="1,0"
       id="guide5048"
       inkscape:locked="false"
       inkscape:label=""
       inkscape:color="rgb(0,0,255)" />
  </sodipodi:namedview>
  <metadata
     id="metadata5">
    <rdf:RDF>
      <cc:Work
         rdf:about="">
        <dc:format>image/svg+xml</dc:format>
        <dc:type
           rdf:resource="http://purl.org/dc/dcmitype/StillImage" />
        <dc:title></dc:title>
      </cc:Work>
    </rdf:RDF>
  </metadata>
  <g
     inkscape:label="Layer 1"
     inkscape:groupmode="layer"
     id="layer1"
     transform="translate(0,-32.41665)">
    <g
       id="layer1-3"
       inkscape:label="Layer 1"
       transform="matrix(0.68041336,0,0,1.3827527,64.289805,-21.782956)"
       style="stroke:#000000;stroke-width:16.36647224;stroke-miterlimit:4;stroke-dasharray:none;stroke-opacity:1">
      <g
         id="layer1-6"
         inkscape:label="Layer 1"
         transform="matrix(1.4696948,0,0,0.72319512,10.343441,42.169297)"
         style="stroke:#000000;stroke-opacity:1;stroke-width:15.87500014;stroke-miterlimit:4;stroke-dasharray:none">
        <path
           style="fill:#000000;stroke-width:2.64583336;stroke-miterlimit:4;stroke-dasharray:none"
           d="m 156.8243,142.8426 c -0.36943,5.33495 -0.49053,6.8761 -0.68576,8.727 -0.45925,4.35419 -1.00709,8.65712 -1.23362,9.68943 -0.0611,0.27856 -0.17875,1.12421 -0.26137,1.87916 -0.0825,0.75493 -0.22022,1.59307 -0.30577,1.8625 -0.0856,0.26945 -0.24331,1.09632 -0.35056,1.83751 -0.10722,0.74115 -0.23835,1.53518 -0.29132,1.76447 -0.053,0.22919 -0.18849,0.81379 -0.30115,1.2989 -0.35115,1.51227 -0.37734,1.62899 -0.70334,3.13619 -0.17489,0.80857 -0.36797,1.60236 -0.42905,1.76401 -0.1094,0.28945 -0.16477,0.49928 -0.33624,1.27391 -0.29299,1.32361 -1.81856,6.43882 -2.01633,6.76069 -0.0331,0.0538 -0.2351,0.67105 -0.44895,1.37158 -0.49074,1.60762 -0.55172,1.77506 -1.22971,3.37658 -0.30715,0.72554 -0.55881,1.41264 -0.55925,1.52688 -4.3e-4,0.11431 -0.13284,0.44528 -0.29408,0.73561 -0.16131,0.29031 -0.29368,0.6283 -0.29415,0.75106 -4.6e-4,0.12278 -0.0794,0.3321 -0.1754,0.46519 -0.096,0.13304 -0.3941,0.78287 -0.66247,1.44393 -0.26837,0.66103 -0.7315,1.67121 -1.02919,2.24481 -0.29766,0.57362 -0.60117,1.21937 -0.67446,1.43502 -0.11134,0.32768 -2.35576,4.41242 -3.15526,5.74241 -0.49024,0.81556 -2.08436,3.14656 -2.35509,3.44377 -0.15483,0.17005 -0.34674,0.44716 -0.42648,0.61603 -0.46721,0.9893 -5.86499,7.38907 -6.23113,7.38779 -0.0516,-1.8e-4 -0.26655,0.21962 -0.47761,0.48873 -0.21106,0.26898 -0.46588,0.4888 -0.56628,0.48845 -0.10042,-3.5e-4 -0.18281,0.0725 -0.18315,0.16199 -5.6e-4,0.14853 -0.25894,0.38049 -2.04592,1.83697 -0.3214,0.26195 -0.68959,0.57538 -0.81821,0.6965 -0.20558,0.19366 -1.04001,0.82116 -1.92793,1.4499 -0.6853,0.4853 -1.12289,0.80589 -1.3128,0.96179 -0.11164,0.0917 -0.30427,0.16615 -0.42811,0.16572 -0.12383,-4.3e-4 -0.40035,0.1459 -0.61449,0.3253 -0.72121,0.60402 -0.79454,0.65061 -1.0229,0.64981 -0.12522,-4.4e-4 -0.26047,0.0873 -0.30049,0.1952 -0.0401,0.10792 -0.24005,0.19841 -0.44454,0.20164 -0.2045,0.004 -0.50337,0.13143 -0.66414,0.28495 -0.1608,0.15345 -0.42185,0.28202 -0.58014,0.28528 -0.15828,0.004 -0.68339,0.21959 -1.16691,0.48089 -1.05242,0.56858 -2.9027,1.25883 -4.02877,1.50297 -0.44894,0.0975 -1.36737,0.34578 -2.04101,0.55216 -0.67363,0.20638 -1.85408,0.42002 -2.62324,0.47478 -0.76916,0.0548 -2.00175,0.19412 -2.7391,0.30986 -1.65192,0.25906 -2.02413,0.20098 -2.07561,-0.32443 -0.0211,-0.21577 -0.10767,-0.48504 -0.1924,-0.59822 -0.15658,-0.20931 -0.17681,-0.92028 -0.30392,-10.68307 -0.0274,-2.10397 -0.0644,-7.09163 -0.0821,-11.08369 -0.0177,-3.99206 -0.0488,-7.61144 -0.0689,-8.04306 -0.0201,-0.43165 -0.0659,-3.39932 -0.1018,-6.59483 -0.0808,-7.18889 -0.19731,-6.6669 1.56575,-7.01249 0.69007,-0.13518 1.51725,-0.365 1.8382,-0.51051 0.32094,-0.14546 1.07348,-0.35922 1.67231,-0.47487 0.59882,-0.11557 1.20256,-0.32818 1.34165,-0.47233 0.13906,-0.14416 0.51541,-0.36529 0.83629,-0.49153 0.32087,-0.12624 0.90775,-0.4442 1.30417,-0.70655 0.3964,-0.26237 0.84782,-0.47659 1.00313,-0.47605 0.15532,5.4e-4 0.43557,-0.21905 0.6228,-0.488 0.18722,-0.26896 0.47644,-0.48863 0.64272,-0.48818 0.16629,4.6e-4 0.39982,-0.17886 0.51898,-0.39866 0.2388,-0.4403 1.56211,-1.55596 1.84441,-1.55497 0.0982,3.4e-4 0.33489,-0.21938 0.52633,-0.48857 0.19141,-0.26906 0.4209,-0.48896 0.50997,-0.48865 0.089,3e-4 0.25388,-0.25826 0.3662,-0.57459 0.15081,-0.4247 0.28317,-0.56538 0.50594,-0.53769 0.18969,0.0239 0.35155,-0.10159 0.43602,-0.33699 0.3067,-0.8549 1.6401,-2.84011 1.87974,-2.79861 0.18757,0.0324 0.25339,-0.0829 0.28326,-0.497 0.0326,-0.45313 0.0941,-0.53915 0.38437,-0.53813 0.20705,7.2e-4 0.37416,-0.12271 0.41711,-0.30782 0.0394,-0.1699 0.19589,-0.38792 0.34772,-0.48434 0.15183,-0.0964 0.27651,-0.29499 0.27707,-0.44128 5.6e-4,-0.14623 0.13253,-0.3836 0.29328,-0.52738 0.16075,-0.14375 0.29273,-0.38084 0.29329,-0.52673 5.5e-4,-0.14589 0.13568,-0.36785 0.30028,-0.49319 0.23085,-0.17571 0.2846,-0.32883 0.23513,-0.66955 -0.0556,-0.38339 -0.0219,-0.43663 0.25657,-0.40351 0.28488,0.0338 0.32519,-0.0364 0.36103,-0.62843 0.0222,-0.36665 0.12846,-0.89591 0.23613,-1.17617 0.28401,-0.73929 1.04277,-1.93272 1.32326,-2.08134 0.19003,-0.10066 0.22609,-0.23324 0.16949,-0.62312 -0.0452,-0.31135 -0.009,-0.61392 0.0991,-0.81487 0.0941,-0.17571 0.18974,-0.53846 0.21262,-0.80594 0.0289,-0.3381 0.14837,-0.54454 0.39187,-0.67736 0.19264,-0.10489 0.36706,-0.20792 0.38759,-0.2287 0.0206,-0.0208 -0.0307,-0.22346 -0.11393,-0.45031 -0.12147,-0.33136 -0.12236,-0.48005 -0.004,-0.75478 0.15972,-0.3721 0.15957,-0.37154 0.38373,-1.51826 0.0843,-0.43126 0.2776,-1.05685 0.42956,-1.39017 0.15194,-0.33331 0.27687,-0.7673 0.27763,-0.96441 7.5e-4,-0.19716 0.0732,-0.49749 0.16089,-0.66752 0.0877,-0.16992 0.22384,-0.74221 0.30245,-1.27152 0.0787,-0.52929 0.21943,-1.14429 0.31291,-1.36667 0.0935,-0.22231 0.17108,-0.68838 0.17241,-1.03564 0.001,-0.34723 0.0551,-0.68572 0.11938,-0.75218 0.0643,-0.0665 0.11793,-0.36965 0.11909,-0.67374 0.001,-0.30409 0.0872,-0.67079 0.19111,-0.81492 0.14442,-0.20014 0.17461,-0.47841 0.12802,-1.17918 -0.0419,-0.62937 -0.009,-1.0314 0.10441,-1.28123 0.0909,-0.20034 0.16812,-0.62412 0.17137,-0.94188 0.003,-0.3449 0.12592,-0.78678 0.3037,-1.09652 0.25398,-0.44251 0.2732,-0.55342 0.13065,-0.7542 -0.13271,-0.18697 -0.1541,-0.64762 -0.10388,-2.23754 0.0348,-1.10123 0.10919,-2.17863 0.16536,-2.39421 0.0561,-0.21551 0.13173,-1.36289 0.16796,-2.54958 0.0362,-1.18667 0.0924,-2.33404 0.12464,-2.54972 0.0323,-0.21559 0.0629,-0.42048 0.0679,-0.45515 0.005,-0.0347 0.0915,0.0767 0.19212,0.24767 0.29501,0.50099 0.39771,0.17673 0.40325,-1.27303 0.004,-1.26316 -0.0999,-1.67001 -0.29458,-1.14549 -0.0561,0.15115 -0.11054,0.13614 -0.17965,-0.0497 -0.1728,-0.46447 -0.10765,-1.13727 0.13459,-1.39015 0.27953,-0.29175 0.29907,-0.60096 0.0593,-0.93863 -0.097,-0.13653 -0.16911,-0.52285 -0.16026,-0.8583 0.009,-0.33544 -0.0353,-1.2687 -0.0982,-2.07387 -0.0629,-0.80517 -0.0892,-1.68802 -0.0586,-1.96186 0.0306,-0.27387 0.0115,-0.7629 -0.0417,-1.08677 -0.0555,-0.33576 -0.0503,-0.89361 0.0125,-1.29805 0.0873,-0.56667 0.0637,-0.86247 -0.1174,-1.47165 -0.12464,-0.41935 -0.26169,-1.39886 -0.30454,-2.17674 -0.0428,-0.77788 -0.14686,-1.51137 -0.23112,-1.63002 -0.0843,-0.11866 -0.21436,-0.85105 -0.28917,-1.62756 -0.0783,-0.813 -0.25583,-1.73287 -0.41854,-2.16869 -0.17975,-0.48162 -0.25814,-0.91604 -0.21555,-1.1946 0.0445,-0.29096 -0.0321,-0.66258 -0.22836,-1.10848 -0.44958,-1.02115 -0.8526,-2.46301 -0.85039,-3.04233 0.002,-0.48465 -0.25211,-1.15212 -0.90509,-2.37873 -0.20427,-0.38375 -0.25412,-0.65127 -0.2014,-1.08103 0.0596,-0.48591 0.0183,-0.620867 -0.27686,-0.904897 -0.1908,-0.183477 -0.37447,-0.48046 -0.40816,-0.659732 -0.0337,-0.179221 -0.19432,-0.473876 -0.35699,-0.654652 -0.22514,-0.250218 -0.27894,-0.438505 -0.22534,-0.788827 0.069,-0.450653 -0.1647,-1.077826 -0.40181,-1.07865 -0.0595,-2.06e-4 -0.10754,-0.17274 -0.10668,-0.383519 9.3e-4,-0.241903 -0.14224,-0.498791 -0.38846,-0.696983 -0.51276,-0.412719 -0.97271,-1.255531 -1.01906,-1.867299 -0.0289,-0.381675 -0.0954,-0.477131 -0.29951,-0.430077 -0.21334,0.04905 -0.26202,-0.03354 -0.26045,-0.442276 10e-4,-0.276516 -0.0518,-0.502941 -0.11748,-0.503171 -0.0657,-2.29e-4 -0.16972,-0.227419 -0.23126,-0.504731 -0.0615,-0.277365 -0.4564,-1.051165 -0.87752,-1.719517 -0.4211,-0.668386 -0.80877,-1.40799 -0.86147,-1.643633 -0.0856,-0.38312 -0.13234,-0.405441 -0.44057,-0.210977 -0.32991,0.208054 -0.38882,0.15246 -1.36962,-1.293193 -0.57016,-0.840349 -1.1323,-1.510904 -1.267,-1.511375 -0.1332,-4.65e-4 -0.3644,-0.221843 -0.51385,-0.492204 -0.14947,-0.270255 -0.3639,-0.491698 -0.47654,-0.492091 -0.11269,-3.94e-4 -0.31189,-0.25671 -0.44283,-0.569625 -0.24085,-0.575533 -1.03219,-1.397199 -1.34673,-1.3983 -0.0942,-3.28e-4 -0.17087,-0.07874 -0.1705,-0.174349 0.001,-0.314639 -0.78004,-0.809737 -1.28049,-0.811486 -0.37774,-0.0013 -0.61865,-0.160569 -1.04392,-0.690215 -0.38708,-0.482058 -0.67716,-0.688965 -0.96729,-0.689979 -0.22794,-7.98e-4 -0.44285,-0.07988 -0.47759,-0.1756 -0.0348,-0.0959 -0.24704,-0.232952 -0.47175,-0.304826 -0.2247,-0.07187 -0.40825,-0.214819 -0.40786,-0.317887 4e-4,-0.103193 -0.14344,-0.189337 -0.31965,-0.192035 -0.44338,-0.0068 -2.2298,-0.556891 -2.39522,-0.73789 -0.15106,-0.165286 -1.03244,-0.339827 -3.27921,-0.649501 -0.83259,-0.114752 -1.60225,-0.293661 -1.71036,-0.397604 -0.28897,-0.277834 -6.949689,-0.254354 -7.253414,0.02562 -0.13188,0.121608 -0.711895,0.286631 -1.288917,0.366869 -1.696189,0.235843 -2.547978,0.447297 -2.820336,0.700184 -0.140458,0.130397 -0.439226,0.236534 -0.663935,0.235748 -0.224712,-7.85e-4 -0.441312,0.08666 -0.481313,0.194561 -0.04004,0.107826 -0.277599,0.195274 -0.52796,0.194398 -0.402401,-0.0014 -0.89158,0.25335 -1.542298,0.803206 -0.111686,0.09433 -0.276325,0.171201 -0.365988,0.170888 -0.08971,-3.15e-4 -0.313696,0.130673 -0.497851,0.291311 -0.184155,0.160586 -0.452801,0.292016 -0.596972,0.292165 -0.144185,-5.04e-4 -0.262482,0.08851 -0.262894,0.196473 -4.13e-4,0.107953 -0.09158,0.195924 -0.202509,0.195536 -0.190185,-6.65e-4 -2.175976,1.5358 -3.069549,2.375019 -0.225081,0.21144 -0.501184,0.43279 -0.613548,0.492002 -0.112377,0.05924 -0.204588,0.185563 -0.204953,0.280905 -3.65e-4,0.09526 -0.07057,0.173155 -0.156118,0.172856 -0.174236,-6.09e-4 -1.518084,1.517619 -1.57957,1.784561 -0.02169,0.0943 -0.102903,0.171277 -0.18026,0.171007 -0.07747,-2.71e-4 -0.481375,0.524377 -0.897698,1.165897 -0.416294,0.641484 -0.803589,1.169788 -0.860643,1.173981 -0.168085,0.01353 -2.398166,3.7407 -2.854275,4.771924 -0.230421,0.520989 -0.583818,1.239012 -0.785319,1.595592 -0.2015,0.356594 -0.481956,1.032662 -0.623205,1.502375 -0.141274,0.469662 -0.352019,1.034234 -0.468301,1.254543 -0.116294,0.220164 -0.4013,1.013247 -0.633321,1.76215 -0.232022,0.74886 -0.561396,1.80245 -0.731945,2.34132 -0.465885,1.47201 -0.911497,3.20622 -0.912822,3.55239 -6.45e-4,0.169 -0.08839,0.58533 -0.194936,0.9253 -0.365653,1.16639 -0.396106,1.29959 -0.398529,1.74265 -9.34e-4,0.24423 -0.08164,0.6966 -0.178606,1.00528 -0.09696,0.30875 -0.176821,0.72896 -0.177604,0.93385 -7.82e-4,0.20482 -0.04949,0.52568 -0.108269,0.7128 -0.250537,0.79746 -0.533739,3.22809 -0.715852,6.14399 -0.04442,0.71158 -0.143198,1.41912 -0.219469,1.57237 -0.188124,0.37801 -0.284102,3.29581 -0.37991,11.54975 -0.06996,6.02485 -0.105597,6.99449 -0.26438,7.19252 -0.134395,0.16781 -1.900483,0.22911 -6.59788,0.22962 -3.596607,0.001 -6.501584,0.0787 -6.612946,0.17845 -0.119301,0.10668 -0.496849,0.10481 -0.945239,-0.004 -0.410639,-0.10004 -2.366489,-0.18597 -4.346345,-0.19054 -2.260888,-0.006 -3.643007,-0.082 -3.71611,-0.20622 -0.06399,-0.10873 -0.156288,-1.76884 -0.205061,-3.68921 -0.0488,-1.92036 -0.121452,-4.8158 -0.161515,-6.43433 -0.04005,-1.61852 -0.119825,-3.06694 -0.177191,-3.21871 -0.05734,-0.15172 -0.143254,-1.07896 -0.1908,-2.06041 -0.110575,-2.28388 -0.251515,-3.79816 -0.418285,-4.49568 -0.07273,-0.30399 -0.131222,-0.80653 -0.130036,-1.11683 0.0012,-0.31027 -0.04458,-0.61309 -0.101588,-0.67292 -0.05715,-0.0599 -0.126152,-0.44047 -0.153584,-0.84583 -0.04806,-0.71085 -0.456604,-2.90951 -0.677821,-3.64762 -0.0591,-0.19739 -0.206509,-0.91033 -0.327557,-1.58465 -0.120995,-0.67429 -0.428467,-1.77506 -0.683159,-2.44611 -0.254693,-0.67109 -0.46248,-1.37995 -0.461733,-1.57532 7.46e-4,-0.19532 -0.128663,-0.61215 -0.287582,-0.92619 -0.15892,-0.31403 -0.288444,-0.7187 -0.287836,-0.89923 6.2e-4,-0.18049 -0.129019,-0.59094 -0.287926,-0.91208 -0.158961,-0.32109 -0.288708,-0.66744 -0.288318,-0.76961 3.91e-4,-0.1021 -0.103463,-0.39882 -0.230793,-0.65908 -0.737265,-1.507207 -0.900577,-1.889088 -0.968768,-2.265342 -0.04151,-0.229067 -0.738205,-1.560078 -1.548145,-2.957626 -1.424778,-2.458444 -3.04609,-4.631375 -4.372637,-5.86027 -0.319275,-0.295755 -0.658732,-0.643621 -0.754355,-0.772992 -0.09569,-0.129459 -0.591993,-0.574873 -1.103036,-0.989981 -0.511044,-0.415125 -1.182242,-0.965175 -1.491551,-1.222335 -0.309309,-0.257179 -0.649288,-0.468247 -0.755517,-0.46906 -0.106233,-3.71e-4 -0.434769,-0.209583 -0.730096,-0.463641 -0.295339,-0.254167 -0.635147,-0.509617 -0.755139,-0.567648 -2.005641,-0.970134 -3.781135,-1.702031 -4.696709,-1.936138 -3.33384,-0.852321 -3.659643,-0.891441 -7.453096,-0.894223 -3.050072,-0.0016 -4.036009,0.06423 -5.069403,0.341886 -0.705594,0.189597 -1.597735,0.413382 -1.982532,0.497362 -0.384796,0.08387 -0.962291,0.287905 -1.283329,0.45311 -0.321336,0.165007 -0.820157,0.360866 -1.1087979,0.435038 -0.2886405,0.07414 -0.8254914,0.344532 -1.1929902,0.600826 -0.3675125,0.256313 -0.7977456,0.465554 -0.9560879,0.465 -0.1583573,-5.54e-4 -0.3206429,0.08708 -0.3606588,0.194983 -0.040044,0.107826 -0.1514153,0.195714 -0.2475604,0.195378 -0.2652633,-9.27e-4 -4.2474157,3.166481 -4.5331038,3.605635 -0.072672,0.11194 -0.3154456,0.372563 -0.5393401,0.579438 -0.2238944,0.206822 -0.4334888,0.427328 -0.4657631,0.489912 -0.032303,0.06272 -0.3747599,0.503492 -0.76105742,0.97981 -0.38629754,0.476318 -0.72876642,0.91651 -0.76103742,0.978191 -0.0323,0.06185 -0.2693925,0.373662 -0.52693658,0.693291 -0.59239238,0.735288 -2.63693138,4.054239 -2.63780228,4.282028 -3.593e-4,0.09396 -0.2553785,0.667345 -0.5667116,1.274325 -0.7142107,1.392393 -2.4717071,5.551873 -2.78383,6.588463 -0.12976,0.43114 -0.2624735,0.8279 -0.2948238,0.88173 -0.032401,0.0538 -0.1301867,0.36246 -0.217291,0.68584 -0.087106,0.32336 -0.2332276,0.83758 -0.3245827,1.14269 -0.091298,0.30514 -0.1665874,0.68006 -0.1671736,0.83312 -5.851e-4,0.1531 -0.043446,0.27821 -0.095188,0.27802 -0.1292116,-4.5e-4 -0.4938391,1.40885 -0.4957786,1.9162 -8.685e-4,0.22707 -0.054221,0.4673 -0.1185959,0.53375 -0.064382,0.0666 -0.117861,0.27009 -0.1189719,0.45253 -0.00104,0.18234 -0.081212,0.58428 -0.1781759,0.893 -0.09695,0.30869 -0.176978,0.76662 -0.177938,1.01764 -9.59e-4,0.25105 -0.05438,0.5108 -0.118761,0.57726 -0.06438,0.0665 -0.1181657,0.42157 -0.1195717,0.78916 -0.0023,0.59198 -0.167792,1.43412 -0.4897787,2.49183 -0.05699,0.18723 -0.108987,0.9373 -0.115633,1.66701 -0.0069,0.72972 -0.06579,1.76792 -0.13157,2.30715 -0.06577,0.53924 -0.177351,1.46573 -0.24808,2.05888 -0.1972827,1.65454 -0.2762687,7.81907 -0.1394647,10.88675 0.1887897,4.23468 0.6944234,8.8895 1.2363701,11.38197 0.11738,0.53986 0.246618,1.24651 0.287171,1.57034 0.07758,0.61924 0.4433654,2.15046 0.9849751,4.12294 0.1779132,0.64797 0.4470554,1.66407 0.5980932,2.25798 0.1510248,0.59395 0.3612516,1.20135 0.467164,1.3498 0.1059415,0.14837 0.1917781,0.47669 0.1908117,0.72946 -9.664e-4,0.25277 0.1425011,0.75004 0.3188091,1.10507 0.1763219,0.35499 0.4029947,0.95471 0.5037231,1.33269 0.1813387,0.68047 0.552547,1.50893 1.1679436,2.60646 0.1750132,0.31217 0.3177536,0.69014 0.3171811,0.83991 -0.00139,0.36411 0.6525046,1.61343 0.9199448,1.75758 0.117,0.0633 0.2401124,0.29496 0.2734655,0.5153 0.033422,0.22022 0.1643847,0.44671 0.2911537,0.50308 0.1267972,0.0562 0.2559484,0.2705 0.287047,0.47587 0.031139,0.20537 0.1530228,0.43469 0.2709553,0.50958 0.117918,0.0751 0.4749218,0.56975 0.793288,1.09967 0.78635046,1.30892 2.9019275,3.88017 3.1933082,3.88119 0.1299001,4.5e-4 0.2647198,0.12863 0.2996945,0.28477 0.060749,0.27122 2.8082529,2.66859 3.0593429,2.66946 0.066331,2.4e-4 0.1203428,0.0886 0.1199297,0.19667 -4.128e-4,0.10795 0.1197929,0.19666 0.2672102,0.19718 0.147389,5.1e-4 0.3174565,0.0841 0.3779445,0.18574 0.060437,0.10169 0.2471576,0.22676 0.4148296,0.27808 0.167671,0.0514 0.4161846,0.18981 0.5522399,0.30791 0.1360563,0.11796 0.3511855,0.30328 0.4780589,0.41162 0.1268724,0.10841 0.3231442,0.19783 0.4361443,0.19895 0.1129715,9.7e-4 0.3551341,0.13423 0.5380563,0.29612 0.1829219,0.16187 0.4283618,0.29452 0.5454096,0.29494 0.1171027,4e-4 0.2448757,0.089 0.2840654,0.19722 0.039217,0.1082 0.2647734,0.19764 0.5012731,0.19914 0.2365156,0.001 0.5796936,0.13505 0.7626156,0.29693 0.182923,0.16185 0.507003,0.29482 0.720169,0.29558 0.213165,7.4e-4 0.419637,0.0896 0.458827,0.19784 0.03922,0.1082 0.422056,0.19817 0.850792,0.20037 0.463564,0.002 0.914359,0.12314 1.112134,0.29813 0.182922,0.16187 0.533218,0.29492 0.778418,0.29577 0.245213,8.6e-4 0.477898,0.0898 0.517087,0.19806 0.03922,0.1082 0.346499,0.19745 0.68289,0.19864 0.964081,0.003 0.972502,0.0326 1.051236,3.63276 0.05682,2.59529 0.306111,24.71359 0.291378,25.84593 -0.0022,0.18883 -0.0026,0.93914 5.21e-4,1.6674 0.0371,11.31353 0.01472,13.20977 -0.157618,13.40256 -0.09951,0.11131 -0.554004,0.15312 -1.048942,0.0963 -1.714956,-0.19621 -3.445053,-0.49623 -4.061869,-0.70438 -0.344716,-0.11639 -0.977084,-0.21262 -1.405258,-0.21412 -0.4281613,-0.001 -1.0365477,-0.1322 -1.3519448,-0.29068 -0.3154105,-0.1585 -1.0218354,-0.4208 -1.5698436,-0.58312 -0.5480221,-0.16232 -1.3846125,-0.47796 -1.8591107,-0.70143 -0.4744851,-0.22338 -1.0298151,-0.40688 -1.2340362,-0.40759 -0.2042348,-7.1e-4 -0.5999626,-0.16755 -0.8793829,-0.37072 -0.2794337,-0.20325 -0.6892348,-0.42871 -0.9106855,-0.50109 -0.6329073,-0.20679 -2.31835396,-1.12498 -2.99237994,-1.6301 -0.33720518,-0.25268 -0.65098656,-0.4593 -0.69729226,-0.45916 -0.1184818,3.8e-4 -1.5133523,-0.96193 -2.0013049,-1.38066 -0.2235395,-0.19193 -0.5372655,-0.41308 -0.6971679,-0.49171 -0.459119,-0.22565 -3.1199398,-2.45478 -3.921633,-3.28535 -0.400038,-0.41444 -0.7546092,-0.75362 -0.7879362,-0.75373 -0.11091,-3.9e-4 -4.1615181,-4.37808 -4.7506711,-5.13427 -3.242257,-4.16142 -5.699259,-8.02659 -8.049927,-12.66351 -0.602703,-1.18893 -1.191054,-2.33856 -1.307428,-2.55475 -0.116415,-0.21614 -0.475594,-1.05606 -0.798283,-1.86637 -0.322674,-0.81032 -0.829957,-2.00379 -1.127298,-2.65219 -0.297341,-0.6484 -0.577081,-1.31143 -0.621623,-1.47342 -0.104918,-0.38155 -0.243828,-0.77733 -0.907789,-2.58704 -0.301248,-0.82105 -0.547508,-1.54531 -0.547262,-1.60947 2.45e-4,-0.0642 -0.19177,-0.62658 -0.426692,-1.24985 -0.459394,-1.21889 -2.251871,-7.29468 -2.390843,-8.10405 -0.0463,-0.26992 -0.178528,-0.80002 -0.293747,-1.17803 -0.237245,-0.77841 -0.476002,-1.74094 -0.681836,-2.74872 -0.07713,-0.3779 -0.259403,-1.21714 -0.404937,-1.865 -0.145533,-0.64786 -0.347634,-1.66374 -0.449107,-2.25747 -0.10148,-0.59377 -0.22606,-1.25626 -0.27685,-1.47221 -0.125116,-0.532 -0.62285,-3.37729 -0.927098,-5.29974 -0.136674,-0.86363 -0.297669,-2.22926 -0.357792,-3.03475 -0.06008,-0.80548 -0.207946,-1.90944 -0.328516,-2.45322 -0.12053,-0.54379 -0.217628,-1.41764 -0.215651,-1.94192 0.0019,-0.52428 -0.118017,-1.84881 -0.266782,-2.94343 -0.165468,-1.21794 -0.319655,-3.2844 -0.397388,-5.32549 -0.06991,-1.83439 -0.197649,-4.1741 -0.283986,-5.19937 -0.182573,-2.16793 -0.18464,-12.04638 -0.0027,-13.14317 0.06254,-0.3774 0.17629,-2.09836 0.252684,-3.82435 0.164145,-3.70856 0.272887,-5.23572 0.551609,-7.74665 0.113727,-1.02459 0.250534,-2.34823 0.30402,-2.94142 0.05347,-0.59323 0.185413,-1.65207 0.293198,-2.35297 0.107814,-0.70093 0.24299,-1.62736 0.30044,-2.0587 0.05738,-0.43139 0.193239,-1.26952 0.301725,-1.86255 0.108501,-0.59301 0.240803,-1.34288 0.294014,-1.66637 0.190741,-1.159669 0.623333,-3.339069 0.729026,-3.672917 0.0592,-0.187215 0.108173,-0.470866 0.108784,-0.630511 10e-4,-0.266774 0.23689,-1.287757 0.488333,-2.113743 0.05699,-0.187228 0.10383,-0.45181 0.104218,-0.588129 7.64e-4,-0.289716 0.468303,-2.215809 1.011775,-4.167657 0.210082,-0.7545 0.499829,-1.812785 0.643888,-2.351744 0.5335,-1.995948 1.361435,-4.732256 1.719451,-5.682819 0.202927,-0.538738 0.538498,-1.489205 0.745723,-2.112106 0.207239,-0.622918 0.674857,-1.857137 1.039174,-2.742678 0.364304,-0.885591 0.912546,-2.234595 1.218297,-2.997829 0.305752,-0.763218 0.630385,-1.512415 0.72139,-1.664877 0.09099,-0.152444 0.321477,-0.636596 0.512175,-1.075816 1.347849,-3.104487 4.991388,-9.387959 7.200293,-12.417236 0.352735,-0.483741 0.712314,-0.989633 0.799053,-1.124168 0.08679,-0.134468 0.196503,-0.244544 0.243921,-0.244378 0.04748,1.66e-4 0.188454,-0.158277 0.313415,-0.352163 0.366338,-0.568314 3.436305,-4.208079 4.264715,-5.05624 1.7616864,-1.803735 2.2787772,-2.275824 4.559729,-4.162945 1.3178006,-1.090253 2.4873578,-2.065709 2.5990174,-2.167668 0.1117144,-0.101917 0.2547183,-0.185157 0.3179207,-0.184935 0.063162,2.2e-4 0.3923965,-0.21433 0.7315722,-0.47704 0.9058154,-0.701247 3.4106521,-2.058652 3.7964305,-2.057303 0.1832499,6.41e-4 0.3832933,-0.07927 0.4445477,-0.177773 0.1354122,-0.21754 1.4530528,-0.974415 2.0959123,-1.203939 2.1572641,-0.770151 3.5412198,-1.225027 4.4328832,-1.456892 0.5772888,-0.150214 1.364526,-0.362018 1.749419,-0.470869 0.830439,-0.234847 5.141306,-0.821724 5.741,-0.781577 0.144136,0.0093 0.655321,0.0094 1.135944,0.0022 4.251687,-0.07986 8.191965,0.19357 9.143445,0.635072 0.22389,0.103977 0.773871,0.239909 1.222178,0.302335 1.147299,0.159772 2.540665,0.543972 2.671041,0.736491 0.06048,0.08947 0.30682,0.163184 0.547313,0.164025 0.240482,8.41e-4 0.557369,0.07886 0.704207,0.173216 0.264892,0.170269 1.064015,0.564247 2.069603,1.020121 0.63201,0.286547 1.599656,0.782897 1.918618,0.984172 0.127805,0.08069 0.467789,0.301055 0.755426,0.48975 0.287635,0.188676 0.627579,0.408883 0.755426,0.489344 0.127804,0.08035 0.430285,0.291647 0.672085,0.469278 0.241785,0.177617 0.50794,0.32323 0.591439,0.323521 0.187529,6.56e-4 2.907518,2.310025 3.383705,2.872888 0.190867,0.225628 0.597109,0.611545 0.902744,0.857634 0.30565,0.246069 0.620148,0.556839 0.698885,0.690543 0.07876,0.133808 0.455507,0.533664 0.837262,0.888785 0.38177,0.35514 0.824441,0.840868 0.983733,1.079405 0.159276,0.238555 0.576635,0.779974 0.927458,1.2032 0.350823,0.423192 0.794233,1.007212 0.98536,1.297811 0.72207,1.097808 1.053993,1.56228 1.420371,1.987573 0.436892,0.507176 3.740128,6.171744 4.612727,7.91014 0.324825,0.647093 1.063884,2.325773 1.642383,3.730398 0.578486,1.404592 1.105427,2.660634 1.170994,2.791188 0.06556,0.130411 0.118989,0.298919 0.118701,0.374222 -2.88e-4,0.07531 0.129372,0.426688 0.288288,0.780871 0.158836,0.354182 0.288556,0.707735 0.288258,0.78565 -2.98e-4,0.07779 0.129352,0.431503 0.28827,0.785685 0.158849,0.354184 0.28842,0.746579 0.287941,0.87198 -4.8e-4,0.125417 0.115992,0.506865 0.258901,0.847692 0.142869,0.340844 0.373719,1.039417 0.512985,1.55238 0.37083,1.36587 0.680456,1.194804 1.146865,-0.633533 0.123775,-0.48509 0.352432,-1.278759 0.508187,-1.763717 0.155755,-0.484979 0.515652,-1.621814 0.799775,-2.52635 0.28411,-0.904535 0.580757,-1.773571 0.659206,-1.931227 0.150321,-0.302107 0.379931,-0.92754 0.521488,-1.420505 0.201973,-0.703303 1.0808,-2.933501 1.569217,-3.982165 0.292383,-0.62777 0.780558,-1.68536 1.084805,-2.350204 0.304248,-0.664846 0.59586,-1.296924 0.648027,-1.404644 0.909543,-1.877892 1.364062,-2.727076 2.553626,-4.771163 0.774952,-1.331665 1.672488,-2.771916 1.994521,-3.200588 0.322045,-0.42869 0.806587,-1.122785 1.076761,-1.542501 0.270174,-0.419716 0.530257,-0.762961 0.577953,-0.762794 0.04774,1.67e-4 0.327287,-0.331368 0.621322,-0.73673 0.294035,-0.405361 0.74531,-0.996432 1.002844,-1.313493 0.257535,-0.317077 0.537946,-0.689798 0.623145,-0.828292 0.08516,-0.138529 0.190875,-0.251637 0.234813,-0.251483 0.0439,1.53e-4 0.369009,-0.395945 0.722394,-0.880231 0.353385,-0.484268 0.696001,-0.880305 0.761406,-0.880076 0.06536,2.28e-4 0.381444,-0.293853 0.702359,-0.653504 0.697011,-0.781113 2.080668,-2.082883 2.512413,-2.363702 0.09643,-0.06263 0.333128,-0.282519 0.526154,-0.488533 0.193025,-0.205994 0.425494,-0.380805 0.516592,-0.38839 0.09112,-0.0068 0.248867,-0.130547 0.350568,-0.273041 0.16743,-0.234748 1.663656,-1.275319 2.696026,-1.874943 0.224773,-0.130634 0.645132,-0.374005 0.934128,-0.54105 0.288996,-0.166923 0.604554,-0.36725 0.701231,-0.444934 0.09663,-0.07781 0.56941,-0.306515 1.050516,-0.508486 0.481107,-0.201989 0.901136,-0.416698 0.933416,-0.477125 0.07402,-0.138745 1.094516,-0.575329 1.63378,-0.69911 0.224471,-0.05161 0.513274,-0.168256 0.641791,-0.259534 0.356878,-0.253314 2.257178,-0.870066 3.590654,-1.165303 0.434864,-0.0962 0.899827,-0.232928 1.033219,-0.303605 0.254844,-0.135112 1.773179,-0.389958 3.831026,-0.643254 0.673151,-0.08286 2.089417,-0.264386 3.147261,-0.403396 3.21523,-0.422544 11.47508,0.322742 13.34277,1.203929 0.25188,0.118893 0.65147,0.217291 0.88798,0.218577 0.23653,8.28e-4 0.46208,0.09105 0.50128,0.198932 0.0392,0.108092 0.30068,0.197295 0.58108,0.198275 0.2804,9.81e-4 0.65701,0.104606 0.83694,0.230217 0.1799,0.125696 0.61519,0.29261 0.96735,0.370997 0.35213,0.07831 0.92802,0.293969 1.27974,0.479076 0.35174,0.185199 0.81022,0.384086 1.01884,0.442251 0.20864,0.05824 0.40785,0.184458 0.44272,0.280452 0.0349,0.09609 0.17824,0.175083 0.31863,0.175749 0.26766,0.0011 1.28928,0.604937 1.43117,0.845901 0.0454,0.07707 0.19171,0.143199 0.3252,0.147018 0.13347,0.0024 0.34397,0.13703 0.46776,0.295887 0.12379,0.15884 0.343,0.28919 0.48715,0.289694 0.14418,5.04e-4 0.29421,0.08923 0.33339,0.197409 0.0392,0.108093 0.16702,0.196828 0.28407,0.197237 0.11711,4.1e-4 0.36249,0.133039 0.54541,0.294959 0.18293,0.16187 0.41385,0.295046 0.51318,0.296029 0.0994,3.47e-4 0.2301,0.07612 0.29064,0.166832 0.0606,0.09071 0.29309,0.280457 0.51683,0.42146 0.47345,0.298342 1.60591,1.144625 1.85882,1.389064 0.0958,0.09259 0.76203,0.66889 1.48058,1.280775 0.71855,0.611882 1.30616,1.19295 1.30579,1.291273 -3.8e-4,0.09826 0.0737,0.179127 0.16463,0.179445 0.16596,5.81e-4 0.88824,0.586511 0.99657,0.808448 0.0953,0.195184 1.98382,2.144472 2.07795,2.144802 0.0479,1.66e-4 0.20928,0.221301 0.35873,0.491645 0.14946,0.270255 0.32815,0.493266 0.39707,0.49557 0.069,0.0021 0.33327,0.312193 0.58745,0.688652 0.25418,0.376408 0.49493,0.684539 0.53502,0.684679 0.0401,1.4e-4 0.24936,0.262261 0.46506,0.582457 0.21572,0.320248 0.52285,0.696365 0.68251,0.83582 0.15967,0.139382 0.31634,0.299167 0.34817,0.354985 0.0318,0.05568 0.57931,0.847402 1.21662,1.759164 0.6373,0.911724 1.26788,1.839549 1.40127,2.061787 0.1334,0.222201 0.51829,0.802294 0.85527,1.288976 1.00473,1.450994 1.99522,3.296543 3.58873,6.68676 0.22246,0.47328 0.72942,1.439764 1.12658,2.147667 0.39719,0.707939 0.72215,1.420176 0.72214,1.582782 4.5e-4,0.162642 0.23929,0.781368 0.53176,1.375042 0.29248,0.593652 0.627,1.432791 0.74339,1.864776 0.11642,0.431987 0.39684,1.128191 0.62326,1.547121 0.22641,0.418964 0.41091,0.958421 0.40998,1.198849 -9.1e-4,0.240394 0.12828,0.675301 0.28713,0.966439 0.43647,0.800051 0.86685,1.93859 0.86551,2.289656 -6.5e-4,0.171987 0.129,0.520388 0.2883,0.774326 0.15923,0.253955 0.28871,0.667834 0.28776,0.919729 -9.6e-4,0.251894 0.15575,0.737964 0.34827,1.080095 0.19251,0.342163 0.38095,0.849583 0.41876,1.127632 0.0377,0.27805 0.15916,0.682411 0.26966,0.898587 0.11051,0.216087 0.23728,0.657989 0.28168,0.98182 0.0445,0.323811 0.1804,0.746517 0.3022,0.939289 0.12188,0.192736 0.25356,0.702779 0.29279,1.133331 0.0392,0.430552 0.11751,0.831182 0.17389,0.890297 0.12952,0.135751 0.44359,1.408071 0.44212,1.791345 -6e-4,0.158758 0.1029,0.513225 0.22999,0.787988 0.13974,0.302061 0.22998,0.796594 0.22825,1.25087 -0.002,0.54595 0.0595,0.80787 0.22517,0.958302 0.1552,0.140955 0.27257,0.582064 0.36755,1.381363 0.0768,0.645876 0.17772,1.174471 0.22444,1.174635 0.0468,1.63e-4 0.14141,0.508092 0.21041,1.128701 0.0691,0.620611 0.22715,1.493091 0.3514,1.938796 0.12421,0.445747 0.28471,1.329049 0.35652,1.962919 0.0719,0.633881 0.16485,1.196753 0.20671,1.250854 0.10495,0.13567 0.31713,1.66727 0.39129,2.825994 0.0338,0.52869 0.10441,1.05857 0.15667,1.17754 0.13328,0.3029 0.33295,1.60586 0.42425,2.76761 0.0423,0.53961 0.11548,1.06952 0.1624,1.17759 0.0469,0.108 0.1191,0.59379 0.16032,1.07944 0.0413,0.48565 0.15082,1.7219 0.24347,2.74721 0.0928,1.02527 0.21119,2.4381 0.26341,3.13955 0.0523,0.70148 0.12607,1.54038 0.16425,1.86419 0.0779,0.66045 0.26424,3.713 0.40744,6.67104 0.0524,1.07912 0.1028,5.66959 0.11254,10.20107 0.0149,7.03423 -0.0151,8.71222 -0.20654,11.475 z"
           id="path5237"
           inkscape:connector-curvature="0" />
      </g>
    </g>
  </g>
</svg>
