<?xml version="1.0" encoding="UTF-8" standalone="no"?>
<!-- Created with Inkscape (http://www.inkscape.org/) -->

<svg
   xmlns:dc="http://purl.org/dc/elements/1.1/"
   xmlns:cc="http://creativecommons.org/ns#"
   xmlns:rdf="http://www.w3.org/1999/02/22-rdf-syntax-ns#"
   xmlns:svg="http://www.w3.org/2000/svg"
   xmlns="http://www.w3.org/2000/svg"
   xmlns:sodipodi="http://sodipodi.sourceforge.net/DTD/sodipodi-0.dtd"
   xmlns:inkscape="http://www.inkscape.org/namespaces/inkscape"
   width="1000"
   height="1000"
   viewBox="0 0 999.99999 3543.3071"
   id="svg2"
   version="1.1"
   inkscape:version="0.91 r13725"
   sodipodi:docname="alpha.svg">
  <defs
     id="defs4">
    <clipPath
       id="clipPath6587"
       clipPathUnits="userSpaceOnUse">
      <rect
         y="32.416656"
         x="-47.625"
         height="296.33334"
         width="294.82144"
         id="rect6589"
         style="fill:none;stroke:#000000;stroke-width:0.52916664;stroke-miterlimit:4;stroke-dasharray:none;stroke-opacity:1" />
    </clipPath>
    <clipPath
       id="clipPath6619"
       clipPathUnits="userSpaceOnUse">
      <rect
         y="32.499294"
         x="-64.929276"
         height="235.69186"
         width="423.92404"
         id="rect6621"
         style="fill:none;stroke:#000000;stroke-width:0.42985716;stroke-miterlimit:4;stroke-dasharray:none;stroke-opacity:1" />
    </clipPath>
    <clipPath
       id="clipPath6627"
       clipPathUnits="userSpaceOnUse">
      <rect
         y="14.273793"
         x="-77.863098"
         height="253.91737"
         width="436.85785"
         id="rect6629"
         style="fill:none;stroke:#000000;stroke-width:0.62034804;stroke-miterlimit:4;stroke-dasharray:none;stroke-opacity:1" />
    </clipPath>
    <clipPath
       id="clipPath6631"
       clipPathUnits="userSpaceOnUse">
      <rect
         y="14.273793"
         x="-77.863098"
         height="253.91737"
         width="436.85785"
         id="rect6633"
         style="fill:none;stroke:#000000;stroke-width:0.62034804;stroke-miterlimit:4;stroke-dasharray:none;stroke-opacity:1" />
    </clipPath>
    <clipPath
       id="clipPath6652"
       clipPathUnits="userSpaceOnUse">
      <rect
         y="18.658319"
         x="-39.007141"
         height="265.33926"
         width="304.6488"
         id="rect6654"
         style="fill:none;stroke:#000000;stroke-width:0.26458332;stroke-miterlimit:4;stroke-dasharray:none;stroke-opacity:1" />
    </clipPath>
    <clipPath
       id="clipPath6656"
       clipPathUnits="userSpaceOnUse">
      <rect
         y="18.658319"
         x="-39.007141"
         height="265.33926"
         width="304.6488"
         id="rect6658"
         style="fill:none;stroke:#000000;stroke-width:0.26458332;stroke-miterlimit:4;stroke-dasharray:none;stroke-opacity:1" />
    </clipPath>
    <clipPath
       id="clipPath6652-4"
       clipPathUnits="userSpaceOnUse">
      <rect
         y="18.658319"
         x="-39.007141"
         height="265.33926"
         width="304.6488"
         id="rect6654-4"
         style="fill:none;stroke:#000000;stroke-width:0.26458332;stroke-miterlimit:4;stroke-dasharray:none;stroke-opacity:1" />
    </clipPath>
  </defs>
  <sodipodi:namedview
     id="base"
     pagecolor="#ffffff"
     bordercolor="#666666"
     borderopacity="1.0"
     inkscape:pageopacity="0.0"
     inkscape:pageshadow="2"
     inkscape:zoom="0.42224253"
     inkscape:cx="677.77427"
     inkscape:cy="532.28095"
     inkscape:document-units="px"
     inkscape:current-layer="text6533"
     showgrid="false"
     inkscape:window-width="1366"
     inkscape:window-height="705"
     inkscape:window-x="-8"
     inkscape:window-y="-8"
     inkscape:window-maximized="1"
     units="px"
     showguides="true"
     inkscape:guide-bbox="true">
    <sodipodi:guide
       position="99.999999,354.33071"
       orientation="1,0"
       id="guide4136"
       inkscape:label=""
       inkscape:color="rgb(0,0,255)" />
    <sodipodi:guide
       position="882.49998,416.33846"
       orientation="1,0"
       id="guide4138"
       inkscape:label=""
       inkscape:color="rgb(0,0,255)" />
    <sodipodi:guide
       position="899.99999,3188.9764"
       orientation="0,1"
       id="guide4140"
       inkscape:label=""
       inkscape:color="rgb(0,0,255)" />
    <sodipodi:guide
       position="899.99999,3188.9764"
       orientation="0,1"
       id="guide4142"
       inkscape:label=""
       inkscape:color="rgb(0,0,255)" />
    <sodipodi:guide
       position="899.99999,3188.9764"
       orientation="0,1"
       id="guide4144"
       inkscape:label=""
       inkscape:color="rgb(0,0,255)" />
    <sodipodi:guide
       position="899.99999,3188.9764"
       orientation="0,1"
       id="guide4146"
       inkscape:label=""
       inkscape:color="rgb(0,0,255)" />
    <sodipodi:guide
       position="99.999999,354.33071"
       orientation="0,1"
       id="guide4148"
       inkscape:label=""
       inkscape:color="rgb(0,0,255)" />
    <sodipodi:guide
       position="491.91653,2200.6736"
       orientation="1,0"
       id="guide4150"
       inkscape:label=""
       inkscape:color="rgb(0,0,255)" />
    <sodipodi:guide
       position="827.18925,1781.9613"
       orientation="0,1"
       id="guide4152"
       inkscape:label=""
       inkscape:color="rgb(0,0,255)" />
  </sodipodi:namedview>
  <metadata
     id="metadata7">
    <rdf:RDF>
      <cc:Work
         rdf:about="">
        <dc:format>image/svg+xml</dc:format>
        <dc:type
           rdf:resource="http://purl.org/dc/dcmitype/StillImage" />
        <dc:title></dc:title>
      </cc:Work>
    </rdf:RDF>
  </metadata>
  <g
     inkscape:label="Layer 1"
     inkscape:groupmode="layer"
     id="layer1"
     transform="translate(0,2491.007)">
    <text
       xml:space="preserve"
       style="font-style:normal;font-weight:normal;font-size:141.73228455px;line-height:125%;font-family:sans-serif;letter-spacing:0px;word-spacing:0px;fill:#000000;fill-opacity:1;stroke:none;stroke-width:1px;stroke-linecap:butt;stroke-linejoin:miter;stroke-opacity:1"
       x="-113.60728"
       y="-525.32819"
       id="text6500"
       sodipodi:linespacing="125%"><tspan
         sodipodi:role="line"
         id="tspan6502"
         x="-113.60728"
         y="-525.32819" /><tspan
         sodipodi:role="line"
         x="-113.60728"
         y="-348.16284"
         id="tspan6504" /></text>
    <flowRoot
       xml:space="preserve"
       id="flowRoot6506"
       style="fill:black;stroke:none;stroke-opacity:1;stroke-width:1px;stroke-linejoin:miter;stroke-linecap:butt;fill-opacity:1;font-family:sans-serif;font-style:normal;font-weight:normal;font-size:40px;line-height:125%;letter-spacing:0px;word-spacing:0px"><flowRegion
         id="flowRegion6508"><rect
           id="rect6510"
           width="108.25078"
           height="83.718712"
           x="383.66577"
           y="497.09091" /></flowRegion><flowPara
         id="flowPara6512"></flowPara></flowRoot>    <text
       xml:space="preserve"
       style="font-style:normal;font-weight:normal;font-size:141.73228455px;line-height:125%;font-family:sans-serif;letter-spacing:0px;word-spacing:0px;fill:#000000;fill-opacity:1;stroke:none;stroke-width:1px;stroke-linecap:butt;stroke-linejoin:miter;stroke-opacity:1"
       x="-457.66452"
       y="-30.22131"
       id="text6518"
       sodipodi:linespacing="125%"><tspan
         sodipodi:role="line"
         id="tspan6520"
         x="-457.66452"
         y="-30.22131" /></text>
    <g
       transform="matrix(-1.1409755,-0.00701304,8.2666305e-5,-0.87644251,0,0)"
       style="font-style:normal;font-weight:normal;font-size:4354.40380859px;line-height:125%;font-family:sans-serif;letter-spacing:0px;word-spacing:0px;fill:#000000;fill-opacity:1;stroke:none;stroke-width:1px;stroke-linecap:butt;stroke-linejoin:miter;stroke-opacity:1"
       id="text6533">
      <path
         style="fill:#000000;stroke:#000000;stroke-width:0.99921256;stroke-miterlimit:4;stroke-dasharray:none;stroke-opacity:1"
         d="m 51.447539,-613.92409 c 4.292504,1.35226 20.682722,5.85259 36.422012,10.00061 58.629959,15.45135 126.488239,44.98402 180.812239,78.69138 121.45543,75.36145 227.61779,195.2687 307.44298,347.24826 91.15597,173.5525404 156.40174,400.49329 189.40108,658.78167 32.3343,253.08463 36.88116,569.23747 11.89167,826.83847 -39.84271,410.7088 -166.07593,735.8069 -355.35575,915.1766 -133.57663,126.5826 -291.71562,189.1922 -483.561618,191.4487 -99.089022,1.1656 -233.119662,-22.0286 -330.398482,-57.1758 -114.96315,-41.5367 -214.91579,-107.4287 -297.83314,-196.3411 -72.92557,-78.1983 -138.26811,-181.1642 -195.00531,-307.2867 -39.83852,-88.5584 -93.55885,-245.681 -124.92422,-365.3831 l -14.9087,-56.8987 -8.2392,-1.1623 -8.239,-1.1622 -88.4325,373.5683 -88.4329,373.5687 -199.6619,-28.046 -199.6618,-28.0457 10e-5,-62.0574 -8e-4,-62.0572 15.7567,-30.0985 c 19.7424,-37.7126 68.3646,-148.1899 94.813,-215.4308 70.682,-179.6978 133.4688,-361.8589 263.714,-765.1021 l 70.6073,-218.60323 -14.6227,-77.96439 c -48.6702,-259.49633 -105.1097,-524.35731 -162.6735,-763.399705 -44.6601,-185.460755 -132.431,-509.095315 -139.8841,-515.791315 -1.4808,-1.3302 -29.1086,-16.19699 -61.3951,-33.03736 l -58.7029,-30.61876 -8e-4,-70.63093 -8e-4,-70.63097 269.104,38.89608 269.1042,38.89608 6.481,27.1185 c 32.3094,135.19282 54.0328,234.43311 78.57786,358.97415 24.41983,123.90631 44.83797,240.790766 65.26371,373.598785 l 17.70257,115.102825 7.88016,1.13902 c 7.4851,1.08187 8.91467,-1.0653 28.4759,-42.6938 140.90353,-299.85746 228.12244,-447.39297 327.96675,-554.77206 119.15878,-128.15153 253.03891,-189.89782 416.79175,-192.22764 38.833238,-0.55258 152.791769,10.97515 173.743286,17.57524 z m -209.471689,275.91647 c -99.10012,0.69647 -178.47673,37.68649 -261.98652,122.08777 -102.22873,103.32016 -200.3011,280.809653 -280.27585,507.23849 -31.94744,90.45099 -95.67488,288.47761 -133.94356,416.21702 l -13.49391,45.04216 6.87148,66.6613 c 63.16828,612.81698 161.79327,969.45198 322.75314,1167.09538 86.49156,106.2036 206.82365,167.1814 333.93794,169.2215 227.601173,3.653 373.96757,-169.8776 454.46238,-538.8069 40.13885,-183.9672 59.5254,-389.8198 62.65828,-665.31998 C 337.75044,530.07142 297.67785,220.48893 209.25761,-4.2308544 140.53519,-178.88829 55.537493,-281.91153 -52.461509,-321.45363 c -22.853733,-8.36758 -76.366291,-16.75921 -105.562641,-16.55399 z"
         id="path6566"
         inkscape:connector-curvature="0" />
    </g>
  </g>
</svg>
