<?xml version="1.0" encoding="UTF-8" standalone="no"?>
<!-- Created with Inkscape (http://www.inkscape.org/) -->

<svg
   xmlns:dc="http://purl.org/dc/elements/1.1/"
   xmlns:cc="http://creativecommons.org/ns#"
   xmlns:rdf="http://www.w3.org/1999/02/22-rdf-syntax-ns#"
   xmlns:svg="http://www.w3.org/2000/svg"
   xmlns="http://www.w3.org/2000/svg"
   xmlns:sodipodi="http://sodipodi.sourceforge.net/DTD/sodipodi-0.dtd"
   xmlns:inkscape="http://www.inkscape.org/namespaces/inkscape"
   width="1000"
   height="1000"
   viewBox="0 0 999.99999 3543.3071"
   id="svg2"
   version="1.1"
   inkscape:version="0.91 r13725"
   sodipodi:docname="ya.svg">
  <defs
     id="defs4">
    <clipPath
       id="clipPath6587"
       clipPathUnits="userSpaceOnUse">
      <rect
         y="32.416656"
         x="-47.625"
         height="296.33334"
         width="294.82144"
         id="rect6589"
         style="fill:none;stroke:#000000;stroke-width:0.52916664;stroke-miterlimit:4;stroke-dasharray:none;stroke-opacity:1" />
    </clipPath>
    <clipPath
       id="clipPath6619"
       clipPathUnits="userSpaceOnUse">
      <rect
         y="32.499294"
         x="-64.929276"
         height="235.69186"
         width="423.92404"
         id="rect6621"
         style="fill:none;stroke:#000000;stroke-width:0.42985716;stroke-miterlimit:4;stroke-dasharray:none;stroke-opacity:1" />
    </clipPath>
    <clipPath
       id="clipPath6627"
       clipPathUnits="userSpaceOnUse">
      <rect
         y="14.273793"
         x="-77.863098"
         height="253.91737"
         width="436.85785"
         id="rect6629"
         style="fill:none;stroke:#000000;stroke-width:0.62034804;stroke-miterlimit:4;stroke-dasharray:none;stroke-opacity:1" />
    </clipPath>
    <clipPath
       id="clipPath6631"
       clipPathUnits="userSpaceOnUse">
      <rect
         y="14.273793"
         x="-77.863098"
         height="253.91737"
         width="436.85785"
         id="rect6633"
         style="fill:none;stroke:#000000;stroke-width:0.62034804;stroke-miterlimit:4;stroke-dasharray:none;stroke-opacity:1" />
    </clipPath>
    <clipPath
       id="clipPath6652"
       clipPathUnits="userSpaceOnUse">
      <rect
         y="18.658319"
         x="-39.007141"
         height="265.33926"
         width="304.6488"
         id="rect6654"
         style="fill:none;stroke:#000000;stroke-width:0.26458332;stroke-miterlimit:4;stroke-dasharray:none;stroke-opacity:1" />
    </clipPath>
    <clipPath
       id="clipPath6656"
       clipPathUnits="userSpaceOnUse">
      <rect
         y="18.658319"
         x="-39.007141"
         height="265.33926"
         width="304.6488"
         id="rect6658"
         style="fill:none;stroke:#000000;stroke-width:0.26458332;stroke-miterlimit:4;stroke-dasharray:none;stroke-opacity:1" />
    </clipPath>
    <clipPath
       id="clipPath6652-4"
       clipPathUnits="userSpaceOnUse">
      <rect
         y="18.658319"
         x="-39.007141"
         height="265.33926"
         width="304.6488"
         id="rect6654-4"
         style="fill:none;stroke:#000000;stroke-width:0.26458332;stroke-miterlimit:4;stroke-dasharray:none;stroke-opacity:1" />
    </clipPath>
  </defs>
  <sodipodi:namedview
     id="base"
     pagecolor="#ffffff"
     bordercolor="#666666"
     borderopacity="1.0"
     inkscape:pageopacity="0.0"
     inkscape:pageshadow="2"
     inkscape:zoom="0.42224253"
     inkscape:cx="260.42236"
     inkscape:cy="409.61335"
     inkscape:document-units="px"
     inkscape:current-layer="layer1"
     showgrid="false"
     inkscape:window-width="1366"
     inkscape:window-height="705"
     inkscape:window-x="-8"
     inkscape:window-y="-8"
     inkscape:window-maximized="1"
     units="px"
     showguides="true"
     inkscape:guide-bbox="true">
    <sodipodi:guide
       position="99.999999,354.33071"
       orientation="1,0"
       id="guide4136"
       inkscape:label=""
       inkscape:color="rgb(0,0,255)" />
    <sodipodi:guide
       position="882.49998,416.33846"
       orientation="1,0"
       id="guide4138"
       inkscape:label=""
       inkscape:color="rgb(0,0,255)" />
    <sodipodi:guide
       position="899.99999,3188.9764"
       orientation="0,1"
       id="guide4140"
       inkscape:label=""
       inkscape:color="rgb(0,0,255)" />
    <sodipodi:guide
       position="899.99999,3188.9764"
       orientation="0,1"
       id="guide4142"
       inkscape:label=""
       inkscape:color="rgb(0,0,255)" />
    <sodipodi:guide
       position="899.99999,3188.9764"
       orientation="0,1"
       id="guide4144"
       inkscape:label=""
       inkscape:color="rgb(0,0,255)" />
    <sodipodi:guide
       position="899.99999,3188.9764"
       orientation="0,1"
       id="guide4146"
       inkscape:label=""
       inkscape:color="rgb(0,0,255)" />
    <sodipodi:guide
       position="99.999999,354.33071"
       orientation="0,1"
       id="guide4148"
       inkscape:label=""
       inkscape:color="rgb(0,0,255)" />
    <sodipodi:guide
       position="491.91653,2200.6736"
       orientation="1,0"
       id="guide4150"
       inkscape:label=""
       inkscape:color="rgb(0,0,255)" />
    <sodipodi:guide
       position="724.70198,1770.6359"
       orientation="0,1"
       id="guide4152"
       inkscape:label=""
       inkscape:color="rgb(0,0,255)" />
  </sodipodi:namedview>
  <metadata
     id="metadata7">
    <rdf:RDF>
      <cc:Work
         rdf:about="">
        <dc:format>image/svg+xml</dc:format>
        <dc:type
           rdf:resource="http://purl.org/dc/dcmitype/StillImage" />
        <dc:title />
      </cc:Work>
    </rdf:RDF>
  </metadata>
  <g
     inkscape:label="Layer 1"
     inkscape:groupmode="layer"
     id="layer1"
     transform="translate(0,2491.007)">
    <g
       transform="scale(1.0082903,0.99177785)"
       style="font-style:normal;font-weight:normal;font-size:3360.3581543px;line-height:125%;font-family:sans-serif;letter-spacing:0px;word-spacing:0px;fill:#000000;fill-opacity:1;stroke:none;stroke-width:1px;stroke-linecap:butt;stroke-linejoin:miter;stroke-opacity:1"
       id="text6475">
      <path
         d="m 1846.6576,-745.70899 q 0,228.07118 -67.2728,441.37516 -65.632,213.303989 -188.692,388.869576 l -721.95194,0 -44.30159,-190.332786 Q 703.02008,-7.3490475 591.44568,45.156549 479.87129,97.662145 335.4809,97.662145 q -275.654377,0 -441.37517,-208.381585 -164.07998,-208.38158 -164.07998,-582.48396 0,-372.4616 201.818382,-593.9696 201.818388,-221.5079 482.395168,-221.5079 119.77839,0 211.66318,27.8936 91.88479,26.2528 198.53679,80.3992 l 0,-78.7584 260.88713,0 0,1381.553459 398.7144,0 q 68.9136,-123.059989 103.3704,-306.829579 36.0976,-185.41038 36.0976,-331.44157 0,-269.09121 -75.4768,-488.95841 -73.836,-219.8671 -218.2264,-377.3839 -144.3904,-157.5168 -357.69434,-241.1976 -213.30399,-85.3216 -484.03597,-85.3216 -262.52798,0 -480.7543635,95.1664 -216.5855865,95.1664 -372.4615765,255.9648 -157.51678,160.7984 -247.76078,385.5879 -88.60319,223.14882 -88.60319,475.832 0,270.73198 85.32159,495.52157 85.3216,223.1487817 241.19758,382.30637 162.43919,165.72079 380.6655767,249.40158 218.2263833,85.3216 475.8319633,85.3216 141.10879,0 290.42158,-18.0488 150.95359,-18.0488 288.78073,-57.428 l 0,232.99358 q -159.15754,34.4568 -296.98473,45.9424 -137.82719,13.1264 -283.85838,13.1264 -305.18878,0 -566.075957,-105.01119 Q -347.09185,504.58052 -534.14303,317.52933 -722.83502,128.83734 -827.84621,-135.33144 -932.8574,-399.50022 -932.8574,-719.4562 q 0,-303.548 109.93359,-564.4352 109.93359,-262.5279 300.26638,-454.5015 190.33278,-191.9736 451.219962,-301.9072 260.887178,-109.9336 557.871958,-109.9336 321.59678,0 574.27991,101.7296 252.6832,101.7296 426.608,285.4992 173.9248,183.7696 265.8096,443.0159 93.5256,257.6056 93.5256,574.28001 z m -1025.49993,418.40397 0,-849.93438 q -103.3704,-47.5832 -185.41039,-67.2728 -82.03999,-21.3304 -175.56559,-21.3304 -211.66318,0 -331.44157,147.672 -119.7783936,147.67202 -119.7783936,420.0448 0,267.45038 95.1663936,405.27757 95.16639,136.18639 296.98478,136.18639 109.93359,0 219.86718,-50.86479 109.93359,-50.8648 200.17759,-119.77839 z"
         style="stroke:#000000;stroke-opacity:1;stroke-width:0.9992126;stroke-miterlimit:4;stroke-dasharray:none"
         id="path6480" />
    </g>
  </g>
</svg>
